<!DOCTYPE svg PUBLIC "-//W3C//DTD SVG 1.1//EN" "http://www.w3.org/Graphics/SVG/1.1/DTD/svg11.dtd">
<!-- Uploaded to: SVG Repo, www.svgrepo.com, Transformed by: SVG Repo Mixer Tools -->
<svg width="189px" height="189px" viewBox="0 0 24 24" version="1.1" xmlns="http://www.w3.org/2000/svg" xmlns:xlink="http://www.w3.org/1999/xlink" fill="#000000" stroke="#000000">
<g id="SVGRepo_bgCarrier" stroke-width="0"/>
<g id="SVGRepo_tracerCarrier" stroke-linecap="round" stroke-linejoin="round"/>
<g id="SVGRepo_iconCarrier"> <title>link-external</title> <desc>Created with sketchtool.</desc> <g id="web-app" stroke-width="0.00024000000000000003" fill="none" fill-rule="evenodd"> <g id="link-external" fill="#999"> <path d="M6,8 C9.33333333,8 11,8 11,8 C11,8 11,8.66666667 11,10 L6,10 L6,18 L14,18 L14,13 L16,13 L16,18 C16,19.1045695 15.1045695,20 14,20 L6,20 C4.8954305,20 4,19.1045695 4,18 L4,10 C4,8.8954305 4.8954305,8 6,8 Z M16.613961,6 L12,6 L12,4 L20,4 L20,12 L18,12 L18,7.44238816 L12.6642136,12.7781746 L11.25,11.363961 L16.613961,6 Z" id="Shape"> </path> </g> </g> </g>
</svg>